<svg width="34" height="34" viewBox="0 0 34 34" fill="none" xmlns="http://www.w3.org/2000/svg">
<path d="M30.402 16.6949C30.402 14.9518 28.989 13.5388 27.2459 13.5388C27.1338 13.5388 27.0232 13.5448 26.9142 13.5562L31.2491 0.770813H12.8271L17.156 13.5451C17.0925 13.5413 17.0286 13.5388 16.9642 13.5388C15.2211 13.5388 13.808 14.9518 13.808 16.6949C13.808 18.1039 14.7314 19.2967 16.0058 19.7025C15.3327 20.8685 14.4857 21.9186 13.5241 22.8258C12.2166 24.0594 10.7201 24.9947 9.10149 25.5712C7.17449 24.5812 6.26444 22.3796 7.08561 20.4492C7.17827 20.2312 7.273 20.0103 7.36342 19.7903C8.75955 19.4645 9.79979 18.213 9.79979 16.7175C9.79979 14.9745 8.38677 13.5615 6.64362 13.5615C4.90053 13.5615 3.48745 14.9745 3.48745 16.7175C3.48745 17.7865 4.01932 18.7306 4.83224 19.3015C4.05108 21.0801 2.90277 22.9416 2.54503 25.099C2.11629 27.6845 2.54364 30.4289 4.77982 31.9789C9.98771 35.5884 15.6408 29.7412 21.6013 28.2714C23.7615 27.7387 26.1326 27.8245 28.0358 26.7222C29.465 25.8945 30.4072 24.5227 30.6746 22.9826C30.9388 21.4611 30.5537 19.9463 29.668 18.7179C30.1261 18.1701 30.402 17.4649 30.402 16.6949Z" fill="#99425B"/>
<path d="M29.9154 22.8507C29.6832 24.1878 28.8574 25.3557 27.6497 26.0553C26.5239 26.7073 25.1748 26.9019 23.7464 27.1079C22.9812 27.2182 22.1899 27.3324 21.417 27.523C19.3731 28.027 17.3934 29.0103 15.479 29.9612C11.6477 31.8642 8.33902 33.5075 5.21916 31.3453C2.93387 29.7614 3.0394 26.8309 3.30564 25.2251C3.55239 23.7373 4.21946 22.3671 4.86457 21.042C4.97604 20.8129 5.08526 20.5881 5.19156 20.3651C5.5113 20.4929 5.85139 20.58 6.2059 20.6197C5.54923 22.7868 6.58191 25.1433 8.74949 26.2568L9.0461 26.4092L9.36029 26.2974C11.0739 25.6871 12.6528 24.7078 14.0533 23.3865C14.9586 22.5324 15.737 21.5875 16.3767 20.5779C16.5685 20.6068 16.7647 20.622 16.9644 20.622C18.9538 20.622 20.6012 19.1347 20.8561 17.2139C21.6704 17.1841 22.5353 17.1838 23.3544 17.2136C23.6091 19.1346 25.2566 20.622 27.2461 20.622C28.0779 20.622 28.8495 20.3613 29.4851 19.9184C29.9264 20.8218 30.0911 21.8382 29.9154 22.8507ZM6.64381 14.3323C7.95915 14.3323 9.02914 15.4024 9.02914 16.7176C9.02914 17.1901 8.89055 17.6306 8.65252 18.0016C8.25592 18.62 7.58214 19.0438 6.80768 19.0967C6.7535 19.1004 6.69892 19.103 6.64381 19.103C6.35074 19.103 6.06992 19.0495 5.81031 18.9524C5.28514 18.7559 4.84754 18.3791 4.57227 17.8979C4.37301 17.5496 4.25847 17.1468 4.25847 16.7176C4.25847 15.4024 5.32854 14.3323 6.64381 14.3323ZM14.5791 16.695C14.5791 15.4999 15.4624 14.5077 16.6104 14.3361C16.7259 14.3187 16.8441 14.3096 16.9644 14.3096C17.7291 14.3096 18.4099 14.6719 18.8465 15.2332C18.9551 15.3727 19.0492 15.524 19.125 15.6856C19.2689 15.9924 19.3497 16.3343 19.3497 16.695C19.3497 16.8857 19.3266 17.0711 19.2841 17.2489C19.0517 18.2221 18.2219 18.9658 17.205 19.0682C17.126 19.0761 17.0456 19.0803 16.9644 19.0803C16.4882 19.0803 16.0445 18.9395 15.6716 18.698C15.0149 18.2726 14.5791 17.5339 14.5791 16.695ZM24.5346 13.8585C24.0236 14.3475 23.6436 14.9722 23.4543 15.6746C22.571 15.6415 21.6344 15.6415 20.7562 15.6746C20.5545 14.9259 20.1361 14.2654 19.5733 13.7636L22.0415 8.77274L24.5346 13.8585ZM13.9024 1.54172H30.174L26.3308 12.8765C26.1643 12.9165 26.0018 12.9668 25.8441 13.0273L22.0476 5.28265L18.2404 12.9811C18.0758 12.9244 17.9062 12.8788 17.7326 12.8442L13.9024 1.54172ZM29.6314 16.695C29.6314 16.9342 29.5956 17.165 29.5299 17.383C29.3732 17.9016 29.0446 18.346 28.6105 18.6499C28.2235 18.9207 27.7532 19.0803 27.2461 19.0803C26.1447 19.0803 25.2156 18.3297 24.9425 17.3133C24.8895 17.116 24.8607 16.9088 24.8607 16.695C24.8607 16.3689 24.9266 16.058 25.0456 15.7747C25.1068 15.6288 25.1833 15.4908 25.2711 15.3611C25.7004 14.7276 26.4248 14.3096 27.2461 14.3096C27.3214 14.3096 27.3957 14.3136 27.4692 14.3204C28.6803 14.4333 29.6314 15.4549 29.6314 16.695ZM31.1731 16.695C31.1731 14.7778 29.7917 13.1781 27.9723 12.8363L32.3245 6.10352e-05H11.7522L16.111 12.8625C14.3547 13.2533 13.0374 14.8227 13.0374 16.695C13.0374 18.1008 13.7804 19.3358 14.8939 20.0297C14.3583 20.8276 13.7231 21.5785 12.9954 22.2652C11.8411 23.3541 10.5552 24.1799 9.16882 24.7233C7.77246 23.8461 7.18216 22.192 7.7952 20.7509L7.84322 20.638C7.87328 20.5675 7.90335 20.4968 7.93333 20.4261C9.46705 19.8911 10.5708 18.4313 10.5708 16.7176C10.5708 14.5522 8.80915 12.7906 6.64381 12.7906C4.47846 12.7906 2.7168 14.5522 2.7168 16.7176C2.7168 17.8106 3.16605 18.8003 3.88909 19.513C3.75804 19.7922 3.62006 20.0763 3.47846 20.3671C2.8174 21.725 2.06815 23.2639 1.78479 24.9729C1.22201 28.3668 2.12982 31.0799 4.34095 32.6124C5.68273 33.5423 7.04526 33.9079 8.41649 33.9079C10.9985 33.9079 13.6103 32.6108 16.1648 31.3419C18.0046 30.4282 19.907 29.4832 21.7861 29.0198C22.4852 28.8474 23.2047 28.7436 23.9665 28.6338C25.4769 28.4158 27.0389 28.1906 28.4223 27.3893C30.0261 26.4604 31.1239 24.9022 31.4343 23.1145C31.7008 21.5797 31.3801 20.0424 30.5979 18.7387C30.9625 18.143 31.1731 17.4431 31.1731 16.695Z" fill="black"/>
</svg>
