<svg width="45" height="27" viewBox="0 0 45 27" fill="none" xmlns="http://www.w3.org/2000/svg">
<g clip-path="url(#clip0_49_1493)">
<path d="M22.4994 0C16.5016 0 12.7532 3.00006 11.2536 8.99962C13.503 5.99956 16.127 4.87496 19.1256 5.62469C20.8367 6.05247 22.0595 7.29471 23.4134 8.66922C25.6184 10.9083 28.1704 13.4997 33.7452 13.4997C39.7425 13.4997 43.4915 10.4997 44.9905 4.49953C42.7417 7.49959 40.1177 8.62476 37.1185 7.87502C35.4079 7.44725 34.1851 6.20501 32.8312 4.83049C30.6262 2.59142 28.0737 0 22.4994 0ZM11.2536 13.4997C5.25632 13.4997 1.50733 16.4998 0.00830078 22.4999C2.25713 19.4998 4.88114 18.3747 7.88033 19.125C9.59085 19.5533 10.8137 20.795 12.1676 22.1689C14.3726 24.408 16.9251 27 22.4994 27C28.4972 27 32.2456 23.9999 33.7452 17.9998C31.4958 20.9999 28.8718 22.125 25.8732 21.3747C24.1621 20.9475 22.9393 19.7047 21.5854 18.3308C19.3804 16.0917 16.8284 13.4997 11.2536 13.4997Z" fill="#06B6D4"/>
</g>
<defs>
<clipPath id="clip0_49_1493">
<rect width="45" height="27" fill="white"/>
</clipPath>
</defs>
</svg>
